<mxfile host="Electron" agent="Mozilla/5.0 (X11; Linux x86_64) AppleWebKit/537.36 (KHTML, like Gecko) draw.io/26.1.1 Chrome/132.0.6834.210 Electron/34.3.3 Safari/537.36" version="26.1.1">
  <diagram id="C5RBs43oDa-KdzZeNtuy" name="Page-1">
    <mxGraphModel dx="2884" dy="1237" grid="1" gridSize="10" guides="1" tooltips="1" connect="1" arrows="1" fold="1" page="1" pageScale="1" pageWidth="2336" pageHeight="1654" math="0" shadow="0">
      <root>
        <mxCell id="WIyWlLk6GJQsqaUBKTNV-0" />
        <mxCell id="WIyWlLk6GJQsqaUBKTNV-1" parent="WIyWlLk6GJQsqaUBKTNV-0" />
        <mxCell id="fcJVb3HREh7NScvAmxeq-0" value="" style="group" parent="WIyWlLk6GJQsqaUBKTNV-1" vertex="1" connectable="0">
          <mxGeometry x="1560" y="40" width="490" height="220" as="geometry" />
        </mxCell>
        <mxCell id="fcJVb3HREh7NScvAmxeq-1" value="&lt;font color=&quot;#000000&quot; size=&quot;1&quot;&gt;&lt;b style=&quot;font-size: 14px&quot;&gt;Legend:&lt;br&gt;&lt;/b&gt;&lt;/font&gt;&lt;br&gt;&lt;br&gt;&lt;br&gt;&lt;font color=&quot;#0000ff&quot; style=&quot;font-size: 6px&quot;&gt;&lt;br&gt;&lt;/font&gt;&lt;span style=&quot;color: rgb(0 , 0 , 0)&quot;&gt;&lt;font style=&quot;font-size: 4px&quot;&gt;&amp;nbsp; &amp;nbsp;&lt;/font&gt;&amp;nbsp;In progress&amp;nbsp; &amp;nbsp; &amp;nbsp; &amp;nbsp; &amp;nbsp; &amp;nbsp; In validation&amp;nbsp; &amp;nbsp; &amp;nbsp; &amp;nbsp; &amp;nbsp; &amp;nbsp;Ready to use&lt;/span&gt;&lt;font color=&quot;#000000&quot;&gt;&amp;nbsp;&lt;br&gt;&lt;/font&gt;&lt;font color=&quot;#0000ff&quot;&gt;&lt;br&gt;&lt;br&gt;&lt;br&gt;&lt;br&gt;&amp;nbsp;attribute / method()&amp;nbsp; &amp;nbsp; &amp;nbsp; &amp;nbsp; New public attribute/method to be implemented&lt;/font&gt;&lt;br&gt;&lt;font color=&quot;#000000&quot;&gt;&amp;nbsp;&lt;/font&gt;&lt;font color=&quot;#000000&quot;&gt;attribute / method()&lt;span&gt; &lt;/span&gt;&amp;nbsp; &amp;nbsp; &amp;nbsp; &amp;nbsp;New/inherited public attribute/method that is implemented here&lt;br&gt;&lt;/font&gt;&lt;font color=&quot;#0000ff&quot;&gt;&amp;nbsp;_attribute /&amp;nbsp;&lt;/font&gt;&lt;font color=&quot;#0000ff&quot;&gt;_method()&amp;nbsp; &amp;nbsp; New protected method/attribute to be implemented&lt;/font&gt;&lt;br&gt;&lt;font color=&quot;#000000&quot;&gt;&amp;nbsp;_attribute / _method()&amp;nbsp; &amp;nbsp; New/inherited protected attribute/method that is implemented here&lt;br&gt;&lt;/font&gt;&lt;font color=&quot;#000000&quot;&gt;&lt;br&gt;&lt;br&gt;&lt;br&gt;&lt;br&gt;&lt;br&gt;&lt;/font&gt;" style="text;html=1;align=left;verticalAlign=top;whiteSpace=wrap;rounded=0;fontColor=#006600;strokeColor=#000000;shadow=1;fillColor=#ffffff;" parent="fcJVb3HREh7NScvAmxeq-0" vertex="1">
          <mxGeometry width="489.99999999999994" height="220" as="geometry" />
        </mxCell>
        <mxCell id="fcJVb3HREh7NScvAmxeq-2" value="Depends on" style="endArrow=block;html=1;labelPosition=right;verticalLabelPosition=middle;align=left;verticalAlign=middle;endFill=1;fontSize=12;" parent="fcJVb3HREh7NScvAmxeq-0" edge="1">
          <mxGeometry x="-1623.1249999999998" y="-2180" width="51.041666666666664" height="50" as="geometry">
            <mxPoint x="10.20802398989899" y="120.00301587301601" as="sourcePoint" />
            <mxPoint x="55.990852272727174" y="120.00301587301601" as="targetPoint" />
            <mxPoint x="98" as="offset" />
            <Array as="points">
              <mxPoint x="30.624999999999996" y="120" />
            </Array>
          </mxGeometry>
        </mxCell>
        <mxCell id="fcJVb3HREh7NScvAmxeq-3" value="Inherits from" style="endArrow=block;html=1;labelPosition=right;verticalLabelPosition=middle;align=left;verticalAlign=middle;endFill=0;fontSize=12;" parent="fcJVb3HREh7NScvAmxeq-0" edge="1">
          <mxGeometry x="-1623.1249999999998" y="-2180" width="51.041666666666664" height="50" as="geometry">
            <mxPoint x="10.20802398989899" y="132.3846031746034" as="sourcePoint" />
            <mxPoint x="55.990852272727174" y="132.3846031746034" as="targetPoint" />
            <mxPoint x="98" y="1" as="offset" />
          </mxGeometry>
        </mxCell>
        <mxCell id="fcJVb3HREh7NScvAmxeq-4" value="" style="swimlane;fontStyle=3;align=center;verticalAlign=top;childLayout=stackLayout;horizontal=1;startSize=26;horizontalStack=0;resizeParent=1;resizeLast=0;collapsible=1;marginBottom=0;rounded=0;shadow=1;strokeWidth=1;fillColor=#f8cecc;strokeColor=#b85450;gradientColor=#ffffff;swimlaneFillColor=#ffffff;" parent="fcJVb3HREh7NScvAmxeq-0" vertex="1">
          <mxGeometry x="10.208333333333332" y="40" width="40.83333333333333" height="34" as="geometry">
            <mxRectangle x="230" y="140" width="160" height="26" as="alternateBounds" />
          </mxGeometry>
        </mxCell>
        <mxCell id="fcJVb3HREh7NScvAmxeq-5" value="" style="line;html=1;strokeWidth=1;align=left;verticalAlign=middle;spacingTop=-1;spacingLeft=3;spacingRight=3;rotatable=0;labelPosition=right;points=[];portConstraint=eastwest;" parent="fcJVb3HREh7NScvAmxeq-4" vertex="1">
          <mxGeometry y="26" width="40.83333333333333" height="8" as="geometry" />
        </mxCell>
        <mxCell id="fcJVb3HREh7NScvAmxeq-6" value="" style="swimlane;fontStyle=3;align=center;verticalAlign=top;childLayout=stackLayout;horizontal=1;startSize=26;horizontalStack=0;resizeParent=1;resizeLast=0;collapsible=1;marginBottom=0;rounded=0;shadow=1;strokeWidth=1;fillColor=#fff2cc;strokeColor=#d6b656;gradientColor=#ffffff;swimlaneFillColor=#ffffff;" parent="fcJVb3HREh7NScvAmxeq-0" vertex="1">
          <mxGeometry x="112.29166666666666" y="40" width="40.83333333333333" height="34" as="geometry">
            <mxRectangle x="230" y="140" width="160" height="26" as="alternateBounds" />
          </mxGeometry>
        </mxCell>
        <mxCell id="fcJVb3HREh7NScvAmxeq-7" value="" style="line;html=1;strokeWidth=1;align=left;verticalAlign=middle;spacingTop=-1;spacingLeft=3;spacingRight=3;rotatable=0;labelPosition=right;points=[];portConstraint=eastwest;" parent="fcJVb3HREh7NScvAmxeq-6" vertex="1">
          <mxGeometry y="26" width="40.83333333333333" height="8" as="geometry" />
        </mxCell>
        <mxCell id="fcJVb3HREh7NScvAmxeq-8" value="" style="swimlane;fontStyle=3;align=center;verticalAlign=top;childLayout=stackLayout;horizontal=1;startSize=26;horizontalStack=0;resizeParent=1;resizeLast=0;collapsible=1;marginBottom=0;rounded=0;shadow=1;strokeWidth=1;fillColor=#dae8fc;strokeColor=#6c8ebf;gradientColor=#ffffff;swimlaneFillColor=#ffffff;" parent="fcJVb3HREh7NScvAmxeq-0" vertex="1">
          <mxGeometry x="214.37499999999997" y="40" width="40.83333333333333" height="34" as="geometry">
            <mxRectangle x="230" y="140" width="160" height="26" as="alternateBounds" />
          </mxGeometry>
        </mxCell>
        <mxCell id="fcJVb3HREh7NScvAmxeq-9" value="" style="line;html=1;strokeWidth=1;align=left;verticalAlign=middle;spacingTop=-1;spacingLeft=3;spacingRight=3;rotatable=0;labelPosition=right;points=[];portConstraint=eastwest;" parent="fcJVb3HREh7NScvAmxeq-8" vertex="1">
          <mxGeometry y="26" width="40.83333333333333" height="8" as="geometry" />
        </mxCell>
        <mxCell id="izVwHubuXxZEv1W2QvRP-12" style="edgeStyle=orthogonalEdgeStyle;rounded=0;orthogonalLoop=1;jettySize=auto;html=1;endArrow=block;endFill=1;" edge="1" parent="WIyWlLk6GJQsqaUBKTNV-1" source="fdyP1tWBDfPf_pqGQ-dC-17" target="0HOuc_ZC-lM9Gi3n_zQz-2">
          <mxGeometry relative="1" as="geometry" />
        </mxCell>
        <mxCell id="izVwHubuXxZEv1W2QvRP-16" style="edgeStyle=orthogonalEdgeStyle;rounded=0;orthogonalLoop=1;jettySize=auto;html=1;endArrow=block;endFill=1;" edge="1" parent="WIyWlLk6GJQsqaUBKTNV-1" source="fdyP1tWBDfPf_pqGQ-dC-17" target="fdyP1tWBDfPf_pqGQ-dC-86">
          <mxGeometry relative="1" as="geometry" />
        </mxCell>
        <mxCell id="izVwHubuXxZEv1W2QvRP-17" style="edgeStyle=orthogonalEdgeStyle;rounded=0;orthogonalLoop=1;jettySize=auto;html=1;endArrow=block;endFill=1;" edge="1" parent="WIyWlLk6GJQsqaUBKTNV-1" source="fdyP1tWBDfPf_pqGQ-dC-17" target="kTaiGCgiYpQkT8_9wVBT-0">
          <mxGeometry relative="1" as="geometry">
            <Array as="points">
              <mxPoint x="610" y="300" />
              <mxPoint x="190" y="300" />
            </Array>
          </mxGeometry>
        </mxCell>
        <mxCell id="fdyP1tWBDfPf_pqGQ-dC-17" value="Stream &#xa;(bf.ops.Mode, bf.various.Id,  bf.various.TStamp, &#xa;bf.various.ScientificObject )" style="swimlane;fontStyle=3;align=center;verticalAlign=top;childLayout=stackLayout;horizontal=1;startSize=57;horizontalStack=0;resizeParent=1;resizeLast=0;collapsible=1;marginBottom=0;rounded=0;shadow=1;strokeWidth=3;fillColor=#fff2cc;strokeColor=#d6b656;swimlaneFillColor=#ffffff;gradientColor=#FFFFFF;" parent="WIyWlLk6GJQsqaUBKTNV-1" vertex="1">
          <mxGeometry x="460" y="361" width="300" height="929" as="geometry">
            <mxRectangle x="230" y="140" width="160" height="26" as="alternateBounds" />
          </mxGeometry>
        </mxCell>
        <mxCell id="fdyP1tWBDfPf_pqGQ-dC-34" value="C_TYPE  = &#39;Stream&#39;" style="text;align=left;verticalAlign=top;spacingLeft=4;spacingRight=4;overflow=hidden;rotatable=0;points=[[0,0.5],[1,0.5]];portConstraint=eastwest;" parent="fdyP1tWBDfPf_pqGQ-dC-17" vertex="1">
          <mxGeometry y="57" width="300" height="26" as="geometry" />
        </mxCell>
        <mxCell id="SBNLjmSB-4yrg_MZeGe--1" value="_next_inst_id : int" style="text;align=left;verticalAlign=top;spacingLeft=4;spacingRight=4;overflow=hidden;rotatable=0;points=[[0,0.5],[1,0.5]];portConstraint=eastwest;" parent="fdyP1tWBDfPf_pqGQ-dC-17" vertex="1">
          <mxGeometry y="83" width="300" height="26" as="geometry" />
        </mxCell>
        <mxCell id="vPPEOoDW9KpNT7AUMtWx-2" value="_version : str" style="text;align=left;verticalAlign=top;spacingLeft=4;spacingRight=4;overflow=hidden;rotatable=0;points=[[0,0.5],[1,0.5]];portConstraint=eastwest;" parent="fdyP1tWBDfPf_pqGQ-dC-17" vertex="1">
          <mxGeometry y="109" width="300" height="26" as="geometry" />
        </mxCell>
        <mxCell id="vPPEOoDW9KpNT7AUMtWx-7" value="_num_instances : int" style="text;align=left;verticalAlign=top;spacingLeft=4;spacingRight=4;overflow=hidden;rotatable=0;points=[[0,0.5],[1,0.5]];portConstraint=eastwest;" parent="fdyP1tWBDfPf_pqGQ-dC-17" vertex="1">
          <mxGeometry y="135" width="300" height="26" as="geometry" />
        </mxCell>
        <mxCell id="0HOuc_ZC-lM9Gi3n_zQz-0" value="**_kwargs" style="text;align=left;verticalAlign=top;spacingLeft=4;spacingRight=4;overflow=hidden;rotatable=0;points=[[0,0.5],[1,0.5]];portConstraint=eastwest;" parent="fdyP1tWBDfPf_pqGQ-dC-17" vertex="1">
          <mxGeometry y="161" width="300" height="26" as="geometry" />
        </mxCell>
        <mxCell id="fdyP1tWBDfPf_pqGQ-dC-101" value="_feature_space : MSpace" style="text;align=left;verticalAlign=top;spacingLeft=4;spacingRight=4;overflow=hidden;rotatable=0;points=[[0,0.5],[1,0.5]];portConstraint=eastwest;" parent="fdyP1tWBDfPf_pqGQ-dC-17" vertex="1">
          <mxGeometry y="187" width="300" height="26" as="geometry" />
        </mxCell>
        <mxCell id="kTaiGCgiYpQkT8_9wVBT-5" value="_label_space : MSpace" style="text;align=left;verticalAlign=top;spacingLeft=4;spacingRight=4;overflow=hidden;rotatable=0;points=[[0,0.5],[1,0.5]];portConstraint=eastwest;" parent="fdyP1tWBDfPf_pqGQ-dC-17" vertex="1">
          <mxGeometry y="213" width="300" height="26" as="geometry" />
        </mxCell>
        <mxCell id="C-rfX_DPHn8f2_06dQrT-20" value="_sampler : Sampler" style="text;align=left;verticalAlign=top;spacingLeft=4;spacingRight=4;overflow=hidden;rotatable=0;points=[[0,0.5],[1,0.5]];portConstraint=eastwest;" parent="fdyP1tWBDfPf_pqGQ-dC-17" vertex="1">
          <mxGeometry y="239" width="300" height="26" as="geometry" />
        </mxCell>
        <mxCell id="izVwHubuXxZEv1W2QvRP-9" value="id" style="text;align=left;verticalAlign=top;spacingLeft=4;spacingRight=4;overflow=hidden;rotatable=0;points=[[0,0.5],[1,0.5]];portConstraint=eastwest;fontStyle=1" vertex="1" parent="fdyP1tWBDfPf_pqGQ-dC-17">
          <mxGeometry y="265" width="300" height="26" as="geometry" />
        </mxCell>
        <mxCell id="izVwHubuXxZEv1W2QvRP-4" value="tstamp : datetime" style="text;align=left;verticalAlign=top;spacingLeft=4;spacingRight=4;overflow=hidden;rotatable=0;points=[[0,0.5],[1,0.5]];portConstraint=eastwest;fontStyle=1" vertex="1" parent="fdyP1tWBDfPf_pqGQ-dC-17">
          <mxGeometry y="291" width="300" height="26" as="geometry" />
        </mxCell>
        <mxCell id="fdyP1tWBDfPf_pqGQ-dC-19" value="" style="line;html=1;strokeWidth=1;align=left;verticalAlign=middle;spacingTop=-1;spacingLeft=3;spacingRight=3;rotatable=0;labelPosition=right;points=[];portConstraint=eastwest;" parent="fdyP1tWBDfPf_pqGQ-dC-17" vertex="1">
          <mxGeometry y="317" width="300" height="8" as="geometry" />
        </mxCell>
        <mxCell id="fdyP1tWBDfPf_pqGQ-dC-90" value="__init__( p_id = &#39;&#39;,&#xa;               p_name : str = &#39;&#39;,&#xa;               p_num_instances : int = 0,&#xa;               p_version : str = &#39;&#39;,&#xa;               p_feature_space : MSpace = None,&#xa;               p_label_space : MSpace = None,&#xa;               p_sampler : Sampler = None,&#xa;               p_mode = Mode.C_MODE_SIM,&#xa;               p_logging = Log.C_LOG_ALL,&#xa;               **p_kwargs )" style="text;align=left;verticalAlign=top;spacingLeft=4;spacingRight=4;overflow=hidden;rotatable=0;points=[[0,0.5],[1,0.5]];portConstraint=eastwest;fontStyle=1" parent="fdyP1tWBDfPf_pqGQ-dC-17" vertex="1">
          <mxGeometry y="325" width="300" height="154" as="geometry" />
        </mxCell>
        <mxCell id="vPPEOoDW9KpNT7AUMtWx-6" value="get_name() -&gt; str" style="text;align=left;verticalAlign=top;spacingLeft=4;spacingRight=4;overflow=hidden;rotatable=0;points=[[0,0.5],[1,0.5]];portConstraint=eastwest;" parent="fdyP1tWBDfPf_pqGQ-dC-17" vertex="1">
          <mxGeometry y="479" width="300" height="26" as="geometry" />
        </mxCell>
        <mxCell id="vPPEOoDW9KpNT7AUMtWx-5" value="get_version() -&gt; str" style="text;align=left;verticalAlign=top;spacingLeft=4;spacingRight=4;overflow=hidden;rotatable=0;points=[[0,0.5],[1,0.5]];portConstraint=eastwest;" parent="fdyP1tWBDfPf_pqGQ-dC-17" vertex="1">
          <mxGeometry y="505" width="300" height="26" as="geometry" />
        </mxCell>
        <mxCell id="K_ok7bvVgyCFEdtzs1Y9-25" value="get_url() -&gt; str" style="text;align=left;verticalAlign=top;spacingLeft=4;spacingRight=4;overflow=hidden;rotatable=0;points=[[0,0.5],[1,0.5]];portConstraint=eastwest;" parent="fdyP1tWBDfPf_pqGQ-dC-17" vertex="1">
          <mxGeometry y="531" width="300" height="26" as="geometry" />
        </mxCell>
        <mxCell id="fdyP1tWBDfPf_pqGQ-dC-99" value="get_feature_space() -&gt; MSpace" style="text;align=left;verticalAlign=top;spacingLeft=4;spacingRight=4;overflow=hidden;rotatable=0;points=[[0,0.5],[1,0.5]];portConstraint=eastwest;fontColor=default;" parent="fdyP1tWBDfPf_pqGQ-dC-17" vertex="1">
          <mxGeometry y="557" width="300" height="26" as="geometry" />
        </mxCell>
        <mxCell id="UfZMX7lJKY_mjSNmI5RH-0" value="_setup_feature_space() -&gt; MSpace" style="text;align=left;verticalAlign=top;spacingLeft=4;spacingRight=4;overflow=hidden;rotatable=0;points=[[0,0.5],[1,0.5]];portConstraint=eastwest;fontColor=#0000CC;" parent="fdyP1tWBDfPf_pqGQ-dC-17" vertex="1">
          <mxGeometry y="583" width="300" height="26" as="geometry" />
        </mxCell>
        <mxCell id="kTaiGCgiYpQkT8_9wVBT-13" value="get_label_space() -&gt; MSpace" style="text;align=left;verticalAlign=top;spacingLeft=4;spacingRight=4;overflow=hidden;rotatable=0;points=[[0,0.5],[1,0.5]];portConstraint=eastwest;fontColor=default;" parent="fdyP1tWBDfPf_pqGQ-dC-17" vertex="1">
          <mxGeometry y="609" width="300" height="26" as="geometry" />
        </mxCell>
        <mxCell id="UfZMX7lJKY_mjSNmI5RH-1" value="_setup_label_space() -&gt; MSpace" style="text;align=left;verticalAlign=top;spacingLeft=4;spacingRight=4;overflow=hidden;rotatable=0;points=[[0,0.5],[1,0.5]];portConstraint=eastwest;fontColor=#0000CC;" parent="fdyP1tWBDfPf_pqGQ-dC-17" vertex="1">
          <mxGeometry y="635" width="300" height="26" as="geometry" />
        </mxCell>
        <mxCell id="edNCnOU9oBRVXEjB64Uq-0" value="set_options( **p_kwargs )" style="text;align=left;verticalAlign=top;spacingLeft=4;spacingRight=4;overflow=hidden;rotatable=0;points=[[0,0.5],[1,0.5]];portConstraint=eastwest;" parent="fdyP1tWBDfPf_pqGQ-dC-17" vertex="1">
          <mxGeometry y="661" width="300" height="26" as="geometry" />
        </mxCell>
        <mxCell id="Ajybz86HG5WaPH0bxO3k-0" value="set_random_seed( p_seed=None )" style="text;align=left;verticalAlign=top;spacingLeft=4;spacingRight=4;overflow=hidden;rotatable=0;points=[[0,0.5],[1,0.5]];portConstraint=eastwest;fontColor=default;" parent="fdyP1tWBDfPf_pqGQ-dC-17" vertex="1">
          <mxGeometry y="687" width="300" height="26" as="geometry" />
        </mxCell>
        <mxCell id="izVwHubuXxZEv1W2QvRP-0" value="get_tstamp() -&gt; datetime" style="text;align=left;verticalAlign=top;spacingLeft=4;spacingRight=4;overflow=hidden;rotatable=0;points=[[0,0.5],[1,0.5]];portConstraint=eastwest;fontColor=default;" vertex="1" parent="fdyP1tWBDfPf_pqGQ-dC-17">
          <mxGeometry y="713" width="300" height="26" as="geometry" />
        </mxCell>
        <mxCell id="izVwHubuXxZEv1W2QvRP-1" value="_get_tstamp_sim() -&gt; datetime" style="text;align=left;verticalAlign=top;spacingLeft=4;spacingRight=4;overflow=hidden;rotatable=0;points=[[0,0.5],[1,0.5]];portConstraint=eastwest;fontColor=#0000FF;" vertex="1" parent="fdyP1tWBDfPf_pqGQ-dC-17">
          <mxGeometry y="739" width="300" height="26" as="geometry" />
        </mxCell>
        <mxCell id="izVwHubuXxZEv1W2QvRP-2" value="_get_tstamp_real() -&gt; datetime" style="text;align=left;verticalAlign=top;spacingLeft=4;spacingRight=4;overflow=hidden;rotatable=0;points=[[0,0.5],[1,0.5]];portConstraint=eastwest;fontColor=default;" vertex="1" parent="fdyP1tWBDfPf_pqGQ-dC-17">
          <mxGeometry y="765" width="300" height="26" as="geometry" />
        </mxCell>
        <mxCell id="Ajybz86HG5WaPH0bxO3k-1" value="__iter__() -&gt; Iterator[Instance]" style="text;align=left;verticalAlign=top;spacingLeft=4;spacingRight=4;overflow=hidden;rotatable=0;points=[[0,0.5],[1,0.5]];portConstraint=eastwest;fontColor=default;" parent="fdyP1tWBDfPf_pqGQ-dC-17" vertex="1">
          <mxGeometry y="791" width="300" height="26" as="geometry" />
        </mxCell>
        <mxCell id="fdyP1tWBDfPf_pqGQ-dC-120" value="_reset()" style="text;align=left;verticalAlign=top;spacingLeft=4;spacingRight=4;overflow=hidden;rotatable=0;points=[[0,0.5],[1,0.5]];portConstraint=eastwest;fontColor=#0000CC;" parent="fdyP1tWBDfPf_pqGQ-dC-17" vertex="1">
          <mxGeometry y="817" width="300" height="26" as="geometry" />
        </mxCell>
        <mxCell id="C-rfX_DPHn8f2_06dQrT-0" value="setup_sampler() -&gt; Sampler" style="text;align=left;verticalAlign=top;spacingLeft=4;spacingRight=4;overflow=hidden;rotatable=0;points=[[0,0.5],[1,0.5]];portConstraint=eastwest;fontColor=#0000CC;" parent="fdyP1tWBDfPf_pqGQ-dC-17" vertex="1">
          <mxGeometry y="843" width="300" height="26" as="geometry" />
        </mxCell>
        <mxCell id="Ajybz86HG5WaPH0bxO3k-2" value="__next__() -&gt; Instance" style="text;align=left;verticalAlign=top;spacingLeft=4;spacingRight=4;overflow=hidden;rotatable=0;points=[[0,0.5],[1,0.5]];portConstraint=eastwest;fontColor=default;" parent="fdyP1tWBDfPf_pqGQ-dC-17" vertex="1">
          <mxGeometry y="869" width="300" height="26" as="geometry" />
        </mxCell>
        <mxCell id="0HOuc_ZC-lM9Gi3n_zQz-4" value="_get_next() -&gt; Instance" style="text;align=left;verticalAlign=top;spacingLeft=4;spacingRight=4;overflow=hidden;rotatable=0;points=[[0,0.5],[1,0.5]];portConstraint=eastwest;fontColor=#0000CC;" parent="fdyP1tWBDfPf_pqGQ-dC-17" vertex="1">
          <mxGeometry y="895" width="300" height="26" as="geometry" />
        </mxCell>
        <mxCell id="fdyP1tWBDfPf_pqGQ-dC-86" value="Feature (bf.math.Dimension)" style="swimlane;fontStyle=3;align=center;verticalAlign=top;childLayout=stackLayout;horizontal=1;startSize=26;horizontalStack=0;resizeParent=1;resizeLast=0;collapsible=1;marginBottom=0;rounded=0;shadow=1;strokeWidth=1;fillColor=#dae8fc;strokeColor=#6c8ebf;swimlaneFillColor=#ffffff;gradientColor=#ffffff;" parent="WIyWlLk6GJQsqaUBKTNV-1" vertex="1">
          <mxGeometry x="460" y="200" width="300" height="42" as="geometry">
            <mxRectangle x="230" y="140" width="160" height="26" as="alternateBounds" />
          </mxGeometry>
        </mxCell>
        <mxCell id="fdyP1tWBDfPf_pqGQ-dC-89" value="" style="line;html=1;strokeWidth=1;align=left;verticalAlign=middle;spacingTop=-1;spacingLeft=3;spacingRight=3;rotatable=0;labelPosition=right;points=[];portConstraint=eastwest;" parent="fdyP1tWBDfPf_pqGQ-dC-86" vertex="1">
          <mxGeometry y="26" width="300" height="8" as="geometry" />
        </mxCell>
        <mxCell id="0HOuc_ZC-lM9Gi3n_zQz-2" value="Instance &#xa;(bf.various.Id, bf.various.TStamp, &#xa;bf.various.KWArgs)" style="swimlane;fontStyle=3;align=center;verticalAlign=top;childLayout=stackLayout;horizontal=1;startSize=60;horizontalStack=0;resizeParent=1;resizeLast=0;collapsible=1;marginBottom=0;rounded=0;shadow=1;strokeWidth=3;fillColor=#dae8fc;strokeColor=#6c8ebf;swimlaneFillColor=#ffffff;gradientColor=#FFFFFF;" parent="WIyWlLk6GJQsqaUBKTNV-1" vertex="1">
          <mxGeometry x="890" y="360" width="300" height="450" as="geometry">
            <mxRectangle x="230" y="140" width="160" height="26" as="alternateBounds" />
          </mxGeometry>
        </mxCell>
        <mxCell id="kTaiGCgiYpQkT8_9wVBT-6" value="_feature_data : Element" style="text;align=left;verticalAlign=top;spacingLeft=4;spacingRight=4;overflow=hidden;rotatable=0;points=[[0,0.5],[1,0.5]];portConstraint=eastwest;" parent="0HOuc_ZC-lM9Gi3n_zQz-2" vertex="1">
          <mxGeometry y="60" width="300" height="26" as="geometry" />
        </mxCell>
        <mxCell id="kTaiGCgiYpQkT8_9wVBT-7" value="_label_data : Element" style="text;align=left;verticalAlign=top;spacingLeft=4;spacingRight=4;overflow=hidden;rotatable=0;points=[[0,0.5],[1,0.5]];portConstraint=eastwest;" parent="0HOuc_ZC-lM9Gi3n_zQz-2" vertex="1">
          <mxGeometry y="86" width="300" height="26" as="geometry" />
        </mxCell>
        <mxCell id="izVwHubuXxZEv1W2QvRP-5" value="id" style="text;align=left;verticalAlign=top;spacingLeft=4;spacingRight=4;overflow=hidden;rotatable=0;points=[[0,0.5],[1,0.5]];portConstraint=eastwest;fontStyle=1" vertex="1" parent="0HOuc_ZC-lM9Gi3n_zQz-2">
          <mxGeometry y="112" width="300" height="26" as="geometry" />
        </mxCell>
        <mxCell id="izVwHubuXxZEv1W2QvRP-6" value="tstamp : datetime" style="text;align=left;verticalAlign=top;spacingLeft=4;spacingRight=4;overflow=hidden;rotatable=0;points=[[0,0.5],[1,0.5]];portConstraint=eastwest;fontStyle=1" vertex="1" parent="0HOuc_ZC-lM9Gi3n_zQz-2">
          <mxGeometry y="138" width="300" height="26" as="geometry" />
        </mxCell>
        <mxCell id="0HOuc_ZC-lM9Gi3n_zQz-3" value="" style="line;html=1;strokeWidth=1;align=left;verticalAlign=middle;spacingTop=-1;spacingLeft=3;spacingRight=3;rotatable=0;labelPosition=right;points=[];portConstraint=eastwest;" parent="0HOuc_ZC-lM9Gi3n_zQz-2" vertex="1">
          <mxGeometry y="164" width="300" height="8" as="geometry" />
        </mxCell>
        <mxCell id="kTaiGCgiYpQkT8_9wVBT-10" value="__init__( p_feature_data : Element,&#xa;               p_label_data : Element = None,&#xa;               p_tstamp : TStampType = None,&#xa;               **p_kwargs )" style="text;align=left;verticalAlign=top;spacingLeft=4;spacingRight=4;overflow=hidden;rotatable=0;points=[[0,0.5],[1,0.5]];portConstraint=eastwest;fontStyle=1" parent="0HOuc_ZC-lM9Gi3n_zQz-2" vertex="1">
          <mxGeometry y="172" width="300" height="66" as="geometry" />
        </mxCell>
        <mxCell id="jSxs76XUKJKOiN7EqSGw-1" value="get_id()" style="text;align=left;verticalAlign=top;spacingLeft=4;spacingRight=4;overflow=hidden;rotatable=0;points=[[0,0.5],[1,0.5]];portConstraint=eastwest;" parent="0HOuc_ZC-lM9Gi3n_zQz-2" vertex="1">
          <mxGeometry y="238" width="300" height="26" as="geometry" />
        </mxCell>
        <mxCell id="SBNLjmSB-4yrg_MZeGe--0" value="set_id( p_id : int )" style="text;align=left;verticalAlign=top;spacingLeft=4;spacingRight=4;overflow=hidden;rotatable=0;points=[[0,0.5],[1,0.5]];portConstraint=eastwest;" parent="0HOuc_ZC-lM9Gi3n_zQz-2" vertex="1">
          <mxGeometry y="264" width="300" height="26" as="geometry" />
        </mxCell>
        <mxCell id="kTaiGCgiYpQkT8_9wVBT-8" value="get_feature_data() -&gt; Element" style="text;align=left;verticalAlign=top;spacingLeft=4;spacingRight=4;overflow=hidden;rotatable=0;points=[[0,0.5],[1,0.5]];portConstraint=eastwest;" parent="0HOuc_ZC-lM9Gi3n_zQz-2" vertex="1">
          <mxGeometry y="290" width="300" height="26" as="geometry" />
        </mxCell>
        <mxCell id="qrSePHDTnBpw__VJ1eam-0" value="set_feature_data( p_feature_data : Element )" style="text;align=left;verticalAlign=top;spacingLeft=4;spacingRight=4;overflow=hidden;rotatable=0;points=[[0,0.5],[1,0.5]];portConstraint=eastwest;" parent="0HOuc_ZC-lM9Gi3n_zQz-2" vertex="1">
          <mxGeometry y="316" width="300" height="26" as="geometry" />
        </mxCell>
        <mxCell id="kTaiGCgiYpQkT8_9wVBT-9" value="get_label_data() -&gt; Element" style="text;align=left;verticalAlign=top;spacingLeft=4;spacingRight=4;overflow=hidden;rotatable=0;points=[[0,0.5],[1,0.5]];portConstraint=eastwest;" parent="0HOuc_ZC-lM9Gi3n_zQz-2" vertex="1">
          <mxGeometry y="342" width="300" height="26" as="geometry" />
        </mxCell>
        <mxCell id="qrSePHDTnBpw__VJ1eam-1" value="set_label_data( p_label_data : Element )" style="text;align=left;verticalAlign=top;spacingLeft=4;spacingRight=4;overflow=hidden;rotatable=0;points=[[0,0.5],[1,0.5]];portConstraint=eastwest;" parent="0HOuc_ZC-lM9Gi3n_zQz-2" vertex="1">
          <mxGeometry y="368" width="300" height="26" as="geometry" />
        </mxCell>
        <mxCell id="kTaiGCgiYpQkT8_9wVBT-15" value="get_kwargs()" style="text;align=left;verticalAlign=top;spacingLeft=4;spacingRight=4;overflow=hidden;rotatable=0;points=[[0,0.5],[1,0.5]];portConstraint=eastwest;" parent="0HOuc_ZC-lM9Gi3n_zQz-2" vertex="1">
          <mxGeometry y="394" width="300" height="26" as="geometry" />
        </mxCell>
        <mxCell id="KjDijWp8GwtKmB_fRuzF-0" value="copy()" style="text;align=left;verticalAlign=top;spacingLeft=4;spacingRight=4;overflow=hidden;rotatable=0;points=[[0,0.5],[1,0.5]];portConstraint=eastwest;" parent="0HOuc_ZC-lM9Gi3n_zQz-2" vertex="1">
          <mxGeometry y="420" width="300" height="26" as="geometry" />
        </mxCell>
        <mxCell id="s7eYJnaDh4DdACU20ck2-0" value="StreamProvider &#xa;(bf.various:Log, SciObj)" style="swimlane;fontStyle=3;align=center;verticalAlign=top;childLayout=stackLayout;horizontal=1;startSize=40;horizontalStack=0;resizeParent=1;resizeLast=0;collapsible=1;marginBottom=0;rounded=0;shadow=1;strokeWidth=3;fillColor=#dae8fc;strokeColor=#6c8ebf;swimlaneFillColor=#ffffff;gradientColor=#FFFFFF;" parent="WIyWlLk6GJQsqaUBKTNV-1" vertex="1">
          <mxGeometry x="40" y="856" width="300" height="434" as="geometry">
            <mxRectangle x="230" y="140" width="160" height="26" as="alternateBounds" />
          </mxGeometry>
        </mxCell>
        <mxCell id="s7eYJnaDh4DdACU20ck2-1" value="C_TYPE  = &#39;Stream Provider&#39;" style="text;align=left;verticalAlign=top;spacingLeft=4;spacingRight=4;overflow=hidden;rotatable=0;points=[[0,0.5],[1,0.5]];portConstraint=eastwest;" parent="s7eYJnaDh4DdACU20ck2-0" vertex="1">
          <mxGeometry y="40" width="300" height="26" as="geometry" />
        </mxCell>
        <mxCell id="s7eYJnaDh4DdACU20ck2-2" value="C_NAME = &#39;????&#39;" style="text;align=left;verticalAlign=top;spacingLeft=4;spacingRight=4;overflow=hidden;rotatable=0;points=[[0,0.5],[1,0.5]];portConstraint=eastwest;fontColor=#0000FF;" parent="s7eYJnaDh4DdACU20ck2-0" vertex="1">
          <mxGeometry y="66" width="300" height="26" as="geometry" />
        </mxCell>
        <mxCell id="EQkAqW6r7q-euxEYXLrZ-5" value="_stream_list: list" style="text;align=left;verticalAlign=top;spacingLeft=4;spacingRight=4;overflow=hidden;rotatable=0;points=[[0,0.5],[1,0.5]];portConstraint=eastwest;fontColor=default;" parent="s7eYJnaDh4DdACU20ck2-0" vertex="1">
          <mxGeometry y="92" width="300" height="26" as="geometry" />
        </mxCell>
        <mxCell id="s7eYJnaDh4DdACU20ck2-3" value="" style="line;html=1;strokeWidth=1;align=left;verticalAlign=middle;spacingTop=-1;spacingLeft=3;spacingRight=3;rotatable=0;labelPosition=right;points=[];portConstraint=eastwest;" parent="s7eYJnaDh4DdACU20ck2-0" vertex="1">
          <mxGeometry y="118" width="300" height="8" as="geometry" />
        </mxCell>
        <mxCell id="s7eYJnaDh4DdACU20ck2-17" value="__init__( p_logging = Log.C_LOG_ALL )" style="text;align=left;verticalAlign=top;spacingLeft=4;spacingRight=4;overflow=hidden;rotatable=0;points=[[0,0.5],[1,0.5]];portConstraint=eastwest;fontStyle=1" parent="s7eYJnaDh4DdACU20ck2-0" vertex="1">
          <mxGeometry y="126" width="300" height="26" as="geometry" />
        </mxCell>
        <mxCell id="nyGUMDUmRo4GMYcVAYQZ-1" value="get_stream_list ( p_mode = Mode.C_MODE_SIM,&#xa;                            p_logging = Log.C_LOG_ALL &#xa;                            **p_kwargs ) -&gt; list " style="text;align=left;verticalAlign=top;spacingLeft=4;spacingRight=4;overflow=hidden;rotatable=0;points=[[0,0.5],[1,0.5]];portConstraint=eastwest;" parent="s7eYJnaDh4DdACU20ck2-0" vertex="1">
          <mxGeometry y="152" width="300" height="58" as="geometry" />
        </mxCell>
        <mxCell id="nyGUMDUmRo4GMYcVAYQZ-23" value="_get_stream_list ( p_mode = Mode.C_MODE_SIM,&#xa;                              p_logging = Log.C_LOG_ALL &#xa;                              **p_kwargs ) -&gt; list " style="text;align=left;verticalAlign=top;spacingLeft=4;spacingRight=4;overflow=hidden;rotatable=0;points=[[0,0.5],[1,0.5]];portConstraint=eastwest;fontColor=#0000CC;" parent="s7eYJnaDh4DdACU20ck2-0" vertex="1">
          <mxGeometry y="210" width="300" height="60" as="geometry" />
        </mxCell>
        <mxCell id="s7eYJnaDh4DdACU20ck2-5" value="get_stream( p_id : str = None, &#xa;                    p_name : str = None,&#xa;                    p_mode = Mode.C_MODE_SIM,&#xa;                    p_logging = Log.C_LOG_ALL &#xa;                    **p_kwargs ) -&gt; Stream " style="text;align=left;verticalAlign=top;spacingLeft=4;spacingRight=4;overflow=hidden;rotatable=0;points=[[0,0.5],[1,0.5]];portConstraint=eastwest;" parent="s7eYJnaDh4DdACU20ck2-0" vertex="1">
          <mxGeometry y="270" width="300" height="82" as="geometry" />
        </mxCell>
        <mxCell id="cMFFaGNPETc6-FeijBff-1" value="_get_stream( p_id : str = None, &#xa;                      p_name : str = None,&#xa;                      p_mode = Mode.C_MODE_SIM,&#xa;                      p_logging = Log.C_LOG_ALL &#xa;                      **p_kwargs ) -&gt; Stream " style="text;align=left;verticalAlign=top;spacingLeft=4;spacingRight=4;overflow=hidden;rotatable=0;points=[[0,0.5],[1,0.5]];portConstraint=eastwest;fontColor=#0000CC;" parent="s7eYJnaDh4DdACU20ck2-0" vertex="1">
          <mxGeometry y="352" width="300" height="82" as="geometry" />
        </mxCell>
        <mxCell id="s7eYJnaDh4DdACU20ck2-14" style="edgeStyle=orthogonalEdgeStyle;rounded=0;orthogonalLoop=1;jettySize=auto;html=1;endArrow=block;endFill=1;entryX=0;entryY=0.5;entryDx=0;entryDy=0;" parent="WIyWlLk6GJQsqaUBKTNV-1" source="s7eYJnaDh4DdACU20ck2-0" target="izVwHubuXxZEv1W2QvRP-0" edge="1">
          <mxGeometry relative="1" as="geometry">
            <mxPoint x="330" y="832" as="sourcePoint" />
          </mxGeometry>
        </mxCell>
        <mxCell id="kTaiGCgiYpQkT8_9wVBT-0" value="Label (bf.math.Dimension)" style="swimlane;fontStyle=3;align=center;verticalAlign=top;childLayout=stackLayout;horizontal=1;startSize=26;horizontalStack=0;resizeParent=1;resizeLast=0;collapsible=1;marginBottom=0;rounded=0;shadow=1;strokeWidth=1;fillColor=#dae8fc;strokeColor=#6c8ebf;swimlaneFillColor=#ffffff;gradientColor=#ffffff;" parent="WIyWlLk6GJQsqaUBKTNV-1" vertex="1">
          <mxGeometry x="40" y="200" width="300" height="42" as="geometry">
            <mxRectangle x="230" y="140" width="160" height="26" as="alternateBounds" />
          </mxGeometry>
        </mxCell>
        <mxCell id="kTaiGCgiYpQkT8_9wVBT-1" value="" style="line;html=1;strokeWidth=1;align=left;verticalAlign=middle;spacingTop=-1;spacingLeft=3;spacingRight=3;rotatable=0;labelPosition=right;points=[];portConstraint=eastwest;" parent="kTaiGCgiYpQkT8_9wVBT-0" vertex="1">
          <mxGeometry y="26" width="300" height="8" as="geometry" />
        </mxCell>
        <mxCell id="izVwHubuXxZEv1W2QvRP-14" style="edgeStyle=orthogonalEdgeStyle;rounded=0;orthogonalLoop=1;jettySize=auto;html=1;endArrow=block;endFill=1;" edge="1" parent="WIyWlLk6GJQsqaUBKTNV-1" source="snStFESme1t0pUEIyn34-0" target="0HOuc_ZC-lM9Gi3n_zQz-2">
          <mxGeometry relative="1" as="geometry" />
        </mxCell>
        <mxCell id="izVwHubuXxZEv1W2QvRP-15" style="edgeStyle=orthogonalEdgeStyle;rounded=0;orthogonalLoop=1;jettySize=auto;html=1;endArrow=block;endFill=1;" edge="1" parent="WIyWlLk6GJQsqaUBKTNV-1" source="snStFESme1t0pUEIyn34-0" target="gUQ-q-52XsLSWtc9X4ot-0">
          <mxGeometry relative="1" as="geometry" />
        </mxCell>
        <mxCell id="snStFESme1t0pUEIyn34-0" value="StreamTask (bf.mt.Task)" style="swimlane;fontStyle=3;align=center;verticalAlign=top;childLayout=stackLayout;horizontal=1;startSize=26;horizontalStack=0;resizeParent=1;resizeLast=0;collapsible=1;marginBottom=0;rounded=0;shadow=1;strokeWidth=3;fillColor=#dae8fc;strokeColor=#6c8ebf;swimlaneFillColor=#ffffff;gradientColor=#FFFFFF;" parent="WIyWlLk6GJQsqaUBKTNV-1" vertex="1">
          <mxGeometry x="1310" y="360" width="300" height="817" as="geometry">
            <mxRectangle x="230" y="140" width="160" height="26" as="alternateBounds" />
          </mxGeometry>
        </mxCell>
        <mxCell id="snStFESme1t0pUEIyn34-1" value="C_TYPE  = &#39;Stream-Task&#39;" style="text;align=left;verticalAlign=top;spacingLeft=4;spacingRight=4;overflow=hidden;rotatable=0;points=[[0,0.5],[1,0.5]];portConstraint=eastwest;" parent="snStFESme1t0pUEIyn34-0" vertex="1">
          <mxGeometry y="26" width="300" height="26" as="geometry" />
        </mxCell>
        <mxCell id="snStFESme1t0pUEIyn34-2" value="C_PLOT_ACTIVE = True" style="text;align=left;verticalAlign=top;spacingLeft=4;spacingRight=4;overflow=hidden;rotatable=0;points=[[0,0.5],[1,0.5]];portConstraint=eastwest;fontColor=default;" parent="snStFESme1t0pUEIyn34-0" vertex="1">
          <mxGeometry y="52" width="300" height="26" as="geometry" />
        </mxCell>
        <mxCell id="snStFESme1t0pUEIyn34-3" value="C_PLOT_STANDALONE = True" style="text;align=left;verticalAlign=top;spacingLeft=4;spacingRight=4;overflow=hidden;rotatable=0;points=[[0,0.5],[1,0.5]];portConstraint=eastwest;fontColor=default;" parent="snStFESme1t0pUEIyn34-0" vertex="1">
          <mxGeometry y="78" width="300" height="30" as="geometry" />
        </mxCell>
        <mxCell id="snStFESme1t0pUEIyn34-4" value="C_PLOT_VALID_VIEWS = [ C_PLOT_VIEW_2D,&#xa;                                              C_PLOT_VIEW_3D,&#xa;                                              C_PLOT_VIEW_ND ]" style="text;align=left;verticalAlign=top;spacingLeft=4;spacingRight=4;overflow=hidden;rotatable=0;points=[[0,0.5],[1,0.5]];portConstraint=eastwest;fontColor=default;" parent="snStFESme1t0pUEIyn34-0" vertex="1">
          <mxGeometry y="108" width="300" height="52" as="geometry" />
        </mxCell>
        <mxCell id="snStFESme1t0pUEIyn34-5" value="C_PLOT_DEFAULT_VIEW = C_PLOT_VIEW_ND" style="text;align=left;verticalAlign=top;spacingLeft=4;spacingRight=4;overflow=hidden;rotatable=0;points=[[0,0.5],[1,0.5]];portConstraint=eastwest;fontColor=default;" parent="snStFESme1t0pUEIyn34-0" vertex="1">
          <mxGeometry y="160" width="300" height="30" as="geometry" />
        </mxCell>
        <mxCell id="snStFESme1t0pUEIyn34-6" value="_duplicate_data : bool" style="text;align=left;verticalAlign=top;spacingLeft=4;spacingRight=4;overflow=hidden;rotatable=0;points=[[0,0.5],[1,0.5]];portConstraint=eastwest;fontColor=default;" parent="snStFESme1t0pUEIyn34-0" vertex="1">
          <mxGeometry y="190" width="300" height="26" as="geometry" />
        </mxCell>
        <mxCell id="snStFESme1t0pUEIyn34-7" value="" style="line;html=1;strokeWidth=1;align=left;verticalAlign=middle;spacingTop=-1;spacingLeft=3;spacingRight=3;rotatable=0;labelPosition=right;points=[];portConstraint=eastwest;" parent="snStFESme1t0pUEIyn34-0" vertex="1">
          <mxGeometry y="216" width="300" height="8" as="geometry" />
        </mxCell>
        <mxCell id="snStFESme1t0pUEIyn34-8" value="__init__( p_name : str = None,&#xa;               p_range_max=Task.C_RANGE_THREAD,&#xa;               p_duplicate_data : bool = False,&#xa;               p_visualize : bool = False,&#xa;               p_logging = Log.C_LOG_ALL,&#xa;               **p_kwargs )" style="text;align=left;verticalAlign=top;spacingLeft=4;spacingRight=4;overflow=hidden;rotatable=0;points=[[0,0.5],[1,0.5]];portConstraint=eastwest;fontColor=default;fontStyle=1" parent="snStFESme1t0pUEIyn34-0" vertex="1">
          <mxGeometry y="224" width="300" height="94" as="geometry" />
        </mxCell>
        <mxCell id="IA8VCRKfYFapqcyP_5LL-0" value="_get_custom_run_method()" style="text;align=left;verticalAlign=top;spacingLeft=4;spacingRight=4;overflow=hidden;rotatable=0;points=[[0,0.5],[1,0.5]];portConstraint=eastwest;fontColor=default;" parent="snStFESme1t0pUEIyn34-0" vertex="1">
          <mxGeometry y="318" width="300" height="27" as="geometry" />
        </mxCell>
        <mxCell id="izVwHubuXxZEv1W2QvRP-23" value="_get_tstamp() -&gt; datetime" style="text;align=left;verticalAlign=top;spacingLeft=4;spacingRight=4;overflow=hidden;rotatable=0;points=[[0,0.5],[1,0.5]];portConstraint=eastwest;fontColor=default;" vertex="1" parent="snStFESme1t0pUEIyn34-0">
          <mxGeometry y="345" width="300" height="27" as="geometry" />
        </mxCell>
        <mxCell id="snStFESme1t0pUEIyn34-9" value="run( p_range : int = None,&#xa;        p_wait : bool = False,&#xa;        p_inst : InstDict = None )" style="text;align=left;verticalAlign=top;spacingLeft=4;spacingRight=4;overflow=hidden;rotatable=0;points=[[0,0.5],[1,0.5]];portConstraint=eastwest;fontColor=default;" parent="snStFESme1t0pUEIyn34-0" vertex="1">
          <mxGeometry y="372" width="300" height="55" as="geometry" />
        </mxCell>
        <mxCell id="IA8VCRKfYFapqcyP_5LL-1" value="_run_wrapper( p_inst : InstDict )" style="text;align=left;verticalAlign=top;spacingLeft=4;spacingRight=4;overflow=hidden;rotatable=0;points=[[0,0.5],[1,0.5]];portConstraint=eastwest;fontColor=default;" parent="snStFESme1t0pUEIyn34-0" vertex="1">
          <mxGeometry y="427" width="300" height="27" as="geometry" />
        </mxCell>
        <mxCell id="snStFESme1t0pUEIyn34-10" value="_run( p_inst : InstDict )" style="text;align=left;verticalAlign=top;spacingLeft=4;spacingRight=4;overflow=hidden;rotatable=0;points=[[0,0.5],[1,0.5]];portConstraint=eastwest;fontColor=#0000FF;" parent="snStFESme1t0pUEIyn34-0" vertex="1">
          <mxGeometry y="454" width="300" height="27" as="geometry" />
        </mxCell>
        <mxCell id="snStFESme1t0pUEIyn34-11" value="_init_plot_2d( p_figure : Figure, &#xa;                       p_settings : PlotSettings )" style="text;align=left;verticalAlign=top;spacingLeft=4;spacingRight=4;overflow=hidden;rotatable=0;points=[[0,0.5],[1,0.5]];portConstraint=eastwest;fontColor=default;" parent="snStFESme1t0pUEIyn34-0" vertex="1">
          <mxGeometry y="481" width="300" height="39" as="geometry" />
        </mxCell>
        <mxCell id="snStFESme1t0pUEIyn34-12" value="_init_plot_3d( p_figure : Figure, &#xa;                       p_settings : PlotSettings )" style="text;align=left;verticalAlign=top;spacingLeft=4;spacingRight=4;overflow=hidden;rotatable=0;points=[[0,0.5],[1,0.5]];portConstraint=eastwest;fontColor=default;" parent="snStFESme1t0pUEIyn34-0" vertex="1">
          <mxGeometry y="520" width="300" height="40" as="geometry" />
        </mxCell>
        <mxCell id="snStFESme1t0pUEIyn34-13" value="_init_plot_nd( p_figure : Figure, &#xa;                       p_settings : PlotSettings )" style="text;align=left;verticalAlign=top;spacingLeft=4;spacingRight=4;overflow=hidden;rotatable=0;points=[[0,0.5],[1,0.5]];portConstraint=eastwest;fontColor=default;" parent="snStFESme1t0pUEIyn34-0" vertex="1">
          <mxGeometry y="560" width="300" height="40" as="geometry" />
        </mxCell>
        <mxCell id="snStFESme1t0pUEIyn34-14" value="update_plot( p_inst : InstDict = None,&#xa;                     **p_kwargs )" style="text;align=left;verticalAlign=top;spacingLeft=4;spacingRight=4;overflow=hidden;rotatable=0;points=[[0,0.5],[1,0.5]];portConstraint=eastwest;fontColor=default;" parent="snStFESme1t0pUEIyn34-0" vertex="1">
          <mxGeometry y="600" width="300" height="37" as="geometry" />
        </mxCell>
        <mxCell id="ngyPrO2KQY6iT1rI6530-9" value="_update_plot_2d( p_settings : PlotSettings,&#xa;                             p_inst : InstDict,&#xa;                             **p_kwargs )" style="text;align=left;verticalAlign=top;spacingLeft=4;spacingRight=4;overflow=hidden;rotatable=0;points=[[0,0.5],[1,0.5]];portConstraint=eastwest;fontColor=default;" parent="snStFESme1t0pUEIyn34-0" vertex="1">
          <mxGeometry y="637" width="300" height="60" as="geometry" />
        </mxCell>
        <mxCell id="fwiwB6IKrWPd8qoMgfP1-0" value="_update_plot_3d( p_settings : PlotSettings,&#xa;                             p_inst : InstDict,&#xa;                             **p_kwargs )" style="text;align=left;verticalAlign=top;spacingLeft=4;spacingRight=4;overflow=hidden;rotatable=0;points=[[0,0.5],[1,0.5]];portConstraint=eastwest;fontColor=default;" parent="snStFESme1t0pUEIyn34-0" vertex="1">
          <mxGeometry y="697" width="300" height="60" as="geometry" />
        </mxCell>
        <mxCell id="fwiwB6IKrWPd8qoMgfP1-1" value="_update_plot_nd( p_settings : PlotSettings,&#xa;                             p_inst : InstDict,&#xa;                             **p_kwargs )" style="text;align=left;verticalAlign=top;spacingLeft=4;spacingRight=4;overflow=hidden;rotatable=0;points=[[0,0.5],[1,0.5]];portConstraint=eastwest;fontColor=default;" parent="snStFESme1t0pUEIyn34-0" vertex="1">
          <mxGeometry y="757" width="300" height="60" as="geometry" />
        </mxCell>
        <mxCell id="snStFESme1t0pUEIyn34-34" style="edgeStyle=orthogonalEdgeStyle;rounded=0;orthogonalLoop=1;jettySize=auto;html=1;endArrow=block;endFill=0;" parent="WIyWlLk6GJQsqaUBKTNV-1" source="snStFESme1t0pUEIyn34-19" target="snStFESme1t0pUEIyn34-0" edge="1">
          <mxGeometry relative="1" as="geometry" />
        </mxCell>
        <mxCell id="snStFESme1t0pUEIyn34-19" value="StreamWorkflow &#xa;(StreamTask, bf.mt.Workflow)" style="swimlane;fontStyle=3;align=center;verticalAlign=top;childLayout=stackLayout;horizontal=1;startSize=40;horizontalStack=0;resizeParent=1;resizeLast=0;collapsible=1;marginBottom=0;rounded=0;shadow=1;strokeWidth=3;fillColor=#dae8fc;strokeColor=#6c8ebf;swimlaneFillColor=#ffffff;gradientColor=#FFFFFF;" parent="WIyWlLk6GJQsqaUBKTNV-1" vertex="1">
          <mxGeometry x="1730" y="361" width="300" height="530" as="geometry">
            <mxRectangle x="230" y="140" width="160" height="26" as="alternateBounds" />
          </mxGeometry>
        </mxCell>
        <mxCell id="snStFESme1t0pUEIyn34-20" value="C_TYPE = &#39;Stream-Workflow&#39;" style="text;align=left;verticalAlign=top;spacingLeft=4;spacingRight=4;overflow=hidden;rotatable=0;points=[[0,0.5],[1,0.5]];portConstraint=eastwest;" parent="snStFESme1t0pUEIyn34-19" vertex="1">
          <mxGeometry y="40" width="300" height="26" as="geometry" />
        </mxCell>
        <mxCell id="snStFESme1t0pUEIyn34-22" value="C_PLOT_STANDALONE = True" style="text;align=left;verticalAlign=top;spacingLeft=4;spacingRight=4;overflow=hidden;rotatable=0;points=[[0,0.5],[1,0.5]];portConstraint=eastwest;fontColor=default;" parent="snStFESme1t0pUEIyn34-19" vertex="1">
          <mxGeometry y="66" width="300" height="30" as="geometry" />
        </mxCell>
        <mxCell id="snStFESme1t0pUEIyn34-23" value="C_PLOT_VALID_VIEWS = [ C_PLOT_VIEW_2D,&#xa;                                              C_PLOT_VIEW_3D,&#xa;                                              C_PLOT_VIEW_ND ]" style="text;align=left;verticalAlign=top;spacingLeft=4;spacingRight=4;overflow=hidden;rotatable=0;points=[[0,0.5],[1,0.5]];portConstraint=eastwest;fontColor=default;" parent="snStFESme1t0pUEIyn34-19" vertex="1">
          <mxGeometry y="96" width="300" height="52" as="geometry" />
        </mxCell>
        <mxCell id="snStFESme1t0pUEIyn34-24" value="C_PLOT_DEFAULT_VIEW = C_PLOT_VIEW_ND" style="text;align=left;verticalAlign=top;spacingLeft=4;spacingRight=4;overflow=hidden;rotatable=0;points=[[0,0.5],[1,0.5]];portConstraint=eastwest;fontColor=default;" parent="snStFESme1t0pUEIyn34-19" vertex="1">
          <mxGeometry y="148" width="300" height="30" as="geometry" />
        </mxCell>
        <mxCell id="snStFESme1t0pUEIyn34-25" value="" style="line;html=1;strokeWidth=1;align=left;verticalAlign=middle;spacingTop=-1;spacingLeft=3;spacingRight=3;rotatable=0;labelPosition=right;points=[];portConstraint=eastwest;" parent="snStFESme1t0pUEIyn34-19" vertex="1">
          <mxGeometry y="178" width="300" height="8" as="geometry" />
        </mxCell>
        <mxCell id="snStFESme1t0pUEIyn34-26" value="__init__( p_name : str = None,&#xa;               p_range_max=MLTask.C_RANGE_THREAD,&#xa;               p_class_shared = StreamShared,&#xa;               p_visualize : bool = False,&#xa;               p_logging = Log.C_LOG_ALL,&#xa;               **p_kwargs )" style="text;align=left;verticalAlign=top;spacingLeft=4;spacingRight=4;overflow=hidden;rotatable=0;points=[[0,0.5],[1,0.5]];portConstraint=eastwest;fontColor=default;fontStyle=1" parent="snStFESme1t0pUEIyn34-19" vertex="1">
          <mxGeometry y="186" width="300" height="95" as="geometry" />
        </mxCell>
        <mxCell id="XLZvmo2WCLEzuC_Loi9u-2" value="run( p_range : int = None,&#xa;        p_wait : bool = False,&#xa;        p_inst : InstDict = None )" style="text;align=left;verticalAlign=top;spacingLeft=4;spacingRight=4;overflow=hidden;rotatable=0;points=[[0,0.5],[1,0.5]];portConstraint=eastwest;fontColor=default;" parent="snStFESme1t0pUEIyn34-19" vertex="1">
          <mxGeometry y="281" width="300" height="59" as="geometry" />
        </mxCell>
        <mxCell id="HMNv4_V_l2ykN5qrOgnX-1" value="init_plot( p_figure:Figure=None, &#xa;               p_plot_settings : PlotSettings )" style="text;align=left;verticalAlign=top;spacingLeft=4;spacingRight=4;overflow=hidden;rotatable=0;points=[[0,0.5],[1,0.5]];portConstraint=eastwest;fontColor=default;" parent="snStFESme1t0pUEIyn34-19" vertex="1">
          <mxGeometry y="340" width="300" height="41" as="geometry" />
        </mxCell>
        <mxCell id="snStFESme1t0pUEIyn34-28" value="_init_plot_2d( p_figure : Figure, &#xa;                       p_settings : PlotSettings )" style="text;align=left;verticalAlign=top;spacingLeft=4;spacingRight=4;overflow=hidden;rotatable=0;points=[[0,0.5],[1,0.5]];portConstraint=eastwest;fontColor=default;" parent="snStFESme1t0pUEIyn34-19" vertex="1">
          <mxGeometry y="381" width="300" height="39" as="geometry" />
        </mxCell>
        <mxCell id="snStFESme1t0pUEIyn34-29" value="_init_plot_3d( p_figure : Figure, &#xa;                       p_settings : PlotSettings )" style="text;align=left;verticalAlign=top;spacingLeft=4;spacingRight=4;overflow=hidden;rotatable=0;points=[[0,0.5],[1,0.5]];portConstraint=eastwest;fontColor=default;" parent="snStFESme1t0pUEIyn34-19" vertex="1">
          <mxGeometry y="420" width="300" height="40" as="geometry" />
        </mxCell>
        <mxCell id="snStFESme1t0pUEIyn34-30" value="_init_plot_nd( p_figure : Figure, &#xa;                       p_settings : PlotSettings )" style="text;align=left;verticalAlign=top;spacingLeft=4;spacingRight=4;overflow=hidden;rotatable=0;points=[[0,0.5],[1,0.5]];portConstraint=eastwest;fontColor=default;" parent="snStFESme1t0pUEIyn34-19" vertex="1">
          <mxGeometry y="460" width="300" height="40" as="geometry" />
        </mxCell>
        <mxCell id="HMNv4_V_l2ykN5qrOgnX-0" value="update_plot( p_inst : InstDict = None,  **p_kwargs )" style="text;align=left;verticalAlign=top;spacingLeft=4;spacingRight=4;overflow=hidden;rotatable=0;points=[[0,0.5],[1,0.5]];portConstraint=eastwest;fontColor=default;" parent="snStFESme1t0pUEIyn34-19" vertex="1">
          <mxGeometry y="500" width="300" height="30" as="geometry" />
        </mxCell>
        <mxCell id="snStFESme1t0pUEIyn34-44" style="edgeStyle=orthogonalEdgeStyle;rounded=0;orthogonalLoop=1;jettySize=auto;html=1;endArrow=block;endFill=1;" parent="WIyWlLk6GJQsqaUBKTNV-1" source="snStFESme1t0pUEIyn34-36" target="snStFESme1t0pUEIyn34-19" edge="1">
          <mxGeometry relative="1" as="geometry">
            <Array as="points">
              <mxPoint x="1460" y="1350" />
              <mxPoint x="1880" y="1350" />
            </Array>
          </mxGeometry>
        </mxCell>
        <mxCell id="izVwHubuXxZEv1W2QvRP-21" style="edgeStyle=orthogonalEdgeStyle;rounded=0;orthogonalLoop=1;jettySize=auto;html=1;entryX=0.75;entryY=1;entryDx=0;entryDy=0;endArrow=block;endFill=1;" edge="1" parent="WIyWlLk6GJQsqaUBKTNV-1" source="snStFESme1t0pUEIyn34-36" target="fdyP1tWBDfPf_pqGQ-dC-17">
          <mxGeometry relative="1" as="geometry">
            <mxPoint x="1010" y="1350" as="targetPoint" />
            <Array as="points">
              <mxPoint x="1460" y="1350" />
              <mxPoint x="685" y="1350" />
            </Array>
          </mxGeometry>
        </mxCell>
        <mxCell id="snStFESme1t0pUEIyn34-36" value="StreamScenario &#xa;(bf.ops.ScenarioBase)" style="swimlane;fontStyle=3;align=center;verticalAlign=top;childLayout=stackLayout;horizontal=1;startSize=40;horizontalStack=0;resizeParent=1;resizeLast=0;collapsible=1;marginBottom=0;rounded=0;shadow=1;strokeWidth=3;fillColor=#dae8fc;strokeColor=#6c8ebf;swimlaneFillColor=#ffffff;gradientColor=#FFFFFF;" parent="WIyWlLk6GJQsqaUBKTNV-1" vertex="1">
          <mxGeometry x="1310" y="1410" width="300" height="510" as="geometry">
            <mxRectangle x="230" y="140" width="160" height="26" as="alternateBounds" />
          </mxGeometry>
        </mxCell>
        <mxCell id="snStFESme1t0pUEIyn34-37" value="C_TYPE = &#39;Stream-Scenario&#39;" style="text;align=left;verticalAlign=top;spacingLeft=4;spacingRight=4;overflow=hidden;rotatable=0;points=[[0,0.5],[1,0.5]];portConstraint=eastwest;" parent="snStFESme1t0pUEIyn34-36" vertex="1">
          <mxGeometry y="40" width="300" height="26" as="geometry" />
        </mxCell>
        <mxCell id="ngyPrO2KQY6iT1rI6530-2" value="_stream : Stream" style="text;align=left;verticalAlign=top;spacingLeft=4;spacingRight=4;overflow=hidden;rotatable=0;points=[[0,0.5],[1,0.5]];portConstraint=eastwest;" parent="snStFESme1t0pUEIyn34-36" vertex="1">
          <mxGeometry y="66" width="300" height="26" as="geometry" />
        </mxCell>
        <mxCell id="ngyPrO2KQY6iT1rI6530-3" value="_workflow : StreamWorkflow" style="text;align=left;verticalAlign=top;spacingLeft=4;spacingRight=4;overflow=hidden;rotatable=0;points=[[0,0.5],[1,0.5]];portConstraint=eastwest;" parent="snStFESme1t0pUEIyn34-36" vertex="1">
          <mxGeometry y="92" width="300" height="26" as="geometry" />
        </mxCell>
        <mxCell id="snStFESme1t0pUEIyn34-38" value="" style="line;html=1;strokeWidth=1;align=left;verticalAlign=middle;spacingTop=-1;spacingLeft=3;spacingRight=3;rotatable=0;labelPosition=right;points=[];portConstraint=eastwest;" parent="snStFESme1t0pUEIyn34-36" vertex="1">
          <mxGeometry y="118" width="300" height="8" as="geometry" />
        </mxCell>
        <mxCell id="ngyPrO2KQY6iT1rI6530-1" value="setup( p_mode, &#xa;           p_cycle_limit = 0,&#xa;           p_visualize : bool = False,&#xa;           p_logging = Log.C_LOG_ALL,&#xa;           **p_kwargs )" style="text;align=left;verticalAlign=top;spacingLeft=4;spacingRight=4;overflow=hidden;rotatable=0;points=[[0,0.5],[1,0.5]];portConstraint=eastwest;fontColor=default;fontStyle=1" parent="snStFESme1t0pUEIyn34-36" vertex="1">
          <mxGeometry y="126" width="300" height="84" as="geometry" />
        </mxCell>
        <mxCell id="snStFESme1t0pUEIyn34-39" value="_setup( p_mode, &#xa;             p_visualize : bool,&#xa;             p_logging,&#xa;             **p_kwargs ) -&gt; Stream, StreamWorkflow" style="text;align=left;verticalAlign=top;spacingLeft=4;spacingRight=4;overflow=hidden;rotatable=0;points=[[0,0.5],[1,0.5]];portConstraint=eastwest;fontColor=#0000CC;" parent="snStFESme1t0pUEIyn34-36" vertex="1">
          <mxGeometry y="210" width="300" height="70" as="geometry" />
        </mxCell>
        <mxCell id="snStFESme1t0pUEIyn34-40" value="_set_mode( p_mode )" style="text;align=left;verticalAlign=top;spacingLeft=4;spacingRight=4;overflow=hidden;rotatable=0;points=[[0,0.5],[1,0.5]];portConstraint=eastwest;fontColor=default;" parent="snStFESme1t0pUEIyn34-36" vertex="1">
          <mxGeometry y="280" width="300" height="30" as="geometry" />
        </mxCell>
        <mxCell id="snStFESme1t0pUEIyn34-42" value="_reset( p_seed )" style="text;fontColor=default;spacingLeft=4;" parent="snStFESme1t0pUEIyn34-36" vertex="1">
          <mxGeometry y="310" width="300" height="28" as="geometry" />
        </mxCell>
        <mxCell id="snStFESme1t0pUEIyn34-43" value="_run_cycle(): bool, bool, bool, bool" style="text;align=left;verticalAlign=top;spacingLeft=4;spacingRight=4;overflow=hidden;rotatable=0;points=[[0,0.5],[1,0.5]];portConstraint=eastwest;fontColor=default;" parent="snStFESme1t0pUEIyn34-36" vertex="1">
          <mxGeometry y="338" width="300" height="26" as="geometry" />
        </mxCell>
        <mxCell id="45b8Ce7RqIYXLr6j16ay-6" value="_init_figure() -&gt; Figure" style="text;align=left;verticalAlign=top;spacingLeft=4;spacingRight=4;overflow=hidden;rotatable=0;points=[[0,0.5],[1,0.5]];portConstraint=eastwest;fontColor=default;" parent="snStFESme1t0pUEIyn34-36" vertex="1">
          <mxGeometry y="364" width="300" height="26" as="geometry" />
        </mxCell>
        <mxCell id="OZfAFwvYxDlL7bSI0IbZ-0" value="init_plot( p_figure:Figure=None, &#xa;               p_plot_settings : PlotSettings )" style="text;align=left;verticalAlign=top;spacingLeft=4;spacingRight=4;overflow=hidden;rotatable=0;points=[[0,0.5],[1,0.5]];portConstraint=eastwest;fontColor=default;" parent="snStFESme1t0pUEIyn34-36" vertex="1">
          <mxGeometry y="390" width="300" height="42" as="geometry" />
        </mxCell>
        <mxCell id="OZfAFwvYxDlL7bSI0IbZ-1" value="update_plot( **p_kwargs )" style="text;align=left;verticalAlign=top;spacingLeft=4;spacingRight=4;overflow=hidden;rotatable=0;points=[[0,0.5],[1,0.5]];portConstraint=eastwest;fontColor=default;" parent="snStFESme1t0pUEIyn34-36" vertex="1">
          <mxGeometry y="432" width="300" height="26" as="geometry" />
        </mxCell>
        <mxCell id="OZfAFwvYxDlL7bSI0IbZ-2" value="get_stream() -&gt; Stream" style="text;align=left;verticalAlign=top;spacingLeft=4;spacingRight=4;overflow=hidden;rotatable=0;points=[[0,0.5],[1,0.5]];portConstraint=eastwest;fontColor=default;" parent="snStFESme1t0pUEIyn34-36" vertex="1">
          <mxGeometry y="458" width="300" height="26" as="geometry" />
        </mxCell>
        <mxCell id="OZfAFwvYxDlL7bSI0IbZ-3" value="get_workflow() -&gt; StreamWorkflow" style="text;align=left;verticalAlign=top;spacingLeft=4;spacingRight=4;overflow=hidden;rotatable=0;points=[[0,0.5],[1,0.5]];portConstraint=eastwest;fontColor=default;" parent="snStFESme1t0pUEIyn34-36" vertex="1">
          <mxGeometry y="484" width="300" height="26" as="geometry" />
        </mxCell>
        <mxCell id="Ajybz86HG5WaPH0bxO3k-5" value="&lt;b&gt;Template class for data streams in MLPro. To be used as iterator.&lt;/b&gt;" style="rounded=1;whiteSpace=wrap;html=1;align=left;spacingLeft=2;verticalAlign=middle;fillColor=#fff2cc;strokeColor=#d6b656;gradientColor=none;shadow=1;" parent="WIyWlLk6GJQsqaUBKTNV-1" vertex="1">
          <mxGeometry x="730" y="300" width="110" height="73" as="geometry" />
        </mxCell>
        <mxCell id="izVwHubuXxZEv1W2QvRP-19" style="edgeStyle=orthogonalEdgeStyle;rounded=0;orthogonalLoop=1;jettySize=auto;html=1;endArrow=block;endFill=1;" edge="1" parent="WIyWlLk6GJQsqaUBKTNV-1" source="gUQ-q-52XsLSWtc9X4ot-0" target="0HOuc_ZC-lM9Gi3n_zQz-2">
          <mxGeometry relative="1" as="geometry" />
        </mxCell>
        <mxCell id="izVwHubuXxZEv1W2QvRP-20" style="edgeStyle=orthogonalEdgeStyle;rounded=0;orthogonalLoop=1;jettySize=auto;html=1;entryX=1;entryY=0.5;entryDx=0;entryDy=0;endArrow=block;endFill=1;" edge="1" parent="WIyWlLk6GJQsqaUBKTNV-1" source="gUQ-q-52XsLSWtc9X4ot-0" target="Ajybz86HG5WaPH0bxO3k-0">
          <mxGeometry relative="1" as="geometry">
            <mxPoint x="770" y="1060" as="targetPoint" />
          </mxGeometry>
        </mxCell>
        <mxCell id="gUQ-q-52XsLSWtc9X4ot-0" value="StreamShared &#xa;(bf.mt.Shared, bf.various.TStamp)" style="swimlane;fontStyle=3;align=center;verticalAlign=top;childLayout=stackLayout;horizontal=1;startSize=40;horizontalStack=0;resizeParent=1;resizeLast=0;collapsible=1;marginBottom=0;rounded=0;shadow=1;strokeWidth=1;fillColor=#dae8fc;strokeColor=#6c8ebf;swimlaneFillColor=#ffffff;gradientColor=#FFFFFF;" parent="WIyWlLk6GJQsqaUBKTNV-1" vertex="1">
          <mxGeometry x="890" y="1006" width="300" height="284" as="geometry">
            <mxRectangle x="230" y="140" width="160" height="26" as="alternateBounds" />
          </mxGeometry>
        </mxCell>
        <mxCell id="gUQ-q-52XsLSWtc9X4ot-2" value="_instances : dict" style="text;align=left;verticalAlign=top;spacingLeft=4;spacingRight=4;overflow=hidden;rotatable=0;points=[[0,0.5],[1,0.5]];portConstraint=eastwest;fontColor=default;" parent="gUQ-q-52XsLSWtc9X4ot-0" vertex="1">
          <mxGeometry y="40" width="300" height="26" as="geometry" />
        </mxCell>
        <mxCell id="izVwHubuXxZEv1W2QvRP-22" value="_stream : Stream" style="text;align=left;verticalAlign=top;spacingLeft=4;spacingRight=4;overflow=hidden;rotatable=0;points=[[0,0.5],[1,0.5]];portConstraint=eastwest;fontColor=default;" vertex="1" parent="gUQ-q-52XsLSWtc9X4ot-0">
          <mxGeometry y="66" width="300" height="26" as="geometry" />
        </mxCell>
        <mxCell id="izVwHubuXxZEv1W2QvRP-8" value="tstamp : datetime" style="text;align=left;verticalAlign=top;spacingLeft=4;spacingRight=4;overflow=hidden;rotatable=0;points=[[0,0.5],[1,0.5]];portConstraint=eastwest;fontStyle=1" vertex="1" parent="gUQ-q-52XsLSWtc9X4ot-0">
          <mxGeometry y="92" width="300" height="26" as="geometry" />
        </mxCell>
        <mxCell id="gUQ-q-52XsLSWtc9X4ot-1" value="" style="line;html=1;strokeWidth=1;align=left;verticalAlign=middle;spacingTop=-1;spacingLeft=3;spacingRight=3;rotatable=0;labelPosition=right;points=[];portConstraint=eastwest;" parent="gUQ-q-52XsLSWtc9X4ot-0" vertex="1">
          <mxGeometry y="118" width="300" height="8" as="geometry" />
        </mxCell>
        <mxCell id="XLZvmo2WCLEzuC_Loi9u-1" value="__init__( p_range = Range..C_RANGE_THREAD )" style="text;align=left;verticalAlign=top;spacingLeft=4;spacingRight=4;overflow=hidden;rotatable=0;points=[[0,0.5],[1,0.5]];portConstraint=eastwest;fontColor=default;fontStyle=1" parent="gUQ-q-52XsLSWtc9X4ot-0" vertex="1">
          <mxGeometry y="126" width="300" height="26" as="geometry" />
        </mxCell>
        <mxCell id="izVwHubuXxZEv1W2QvRP-11" value="assign_stream( p_stream : Stream )" style="text;align=left;verticalAlign=top;spacingLeft=4;spacingRight=4;overflow=hidden;rotatable=0;points=[[0,0.5],[1,0.5]];portConstraint=eastwest;fontColor=default;" vertex="1" parent="gUQ-q-52XsLSWtc9X4ot-0">
          <mxGeometry y="152" width="300" height="26" as="geometry" />
        </mxCell>
        <mxCell id="izVwHubuXxZEv1W2QvRP-10" value="get_tstamp() -&gt; datetime" style="text;align=left;verticalAlign=top;spacingLeft=4;spacingRight=4;overflow=hidden;rotatable=0;points=[[0,0.5],[1,0.5]];portConstraint=eastwest;fontColor=default;" vertex="1" parent="gUQ-q-52XsLSWtc9X4ot-0">
          <mxGeometry y="178" width="300" height="26" as="geometry" />
        </mxCell>
        <mxCell id="XLZvmo2WCLEzuC_Loi9u-0" value="reset( p_inst : InstDict )" style="text;align=left;verticalAlign=top;spacingLeft=4;spacingRight=4;overflow=hidden;rotatable=0;points=[[0,0.5],[1,0.5]];portConstraint=eastwest;fontColor=default;" parent="gUQ-q-52XsLSWtc9X4ot-0" vertex="1">
          <mxGeometry y="204" width="300" height="26" as="geometry" />
        </mxCell>
        <mxCell id="gUQ-q-52XsLSWtc9X4ot-5" value="get_instances( p_task_ids : list ) -&gt; InstDict" style="text;align=left;verticalAlign=top;spacingLeft=4;spacingRight=4;overflow=hidden;rotatable=0;points=[[0,0.5],[1,0.5]];portConstraint=eastwest;fontColor=default;" parent="gUQ-q-52XsLSWtc9X4ot-0" vertex="1">
          <mxGeometry y="230" width="300" height="26" as="geometry" />
        </mxCell>
        <mxCell id="j9Cj8zyY9FMqE4ImIQ_c-0" value="set_instances( p_task_id, p_inst : InstDict )" style="text;align=left;verticalAlign=top;spacingLeft=4;spacingRight=4;overflow=hidden;rotatable=0;points=[[0,0.5],[1,0.5]];portConstraint=eastwest;fontColor=default;" parent="gUQ-q-52XsLSWtc9X4ot-0" vertex="1">
          <mxGeometry y="256" width="300" height="28" as="geometry" />
        </mxCell>
        <mxCell id="C-rfX_DPHn8f2_06dQrT-1" value="Sampler (bf.various.SciObj)" style="swimlane;fontStyle=3;align=center;verticalAlign=top;childLayout=stackLayout;horizontal=1;startSize=26;horizontalStack=0;resizeParent=1;resizeLast=0;collapsible=1;marginBottom=0;rounded=0;shadow=1;strokeWidth=3;fillColor=#dae8fc;strokeColor=#6c8ebf;swimlaneFillColor=#ffffff;gradientColor=#FFFFFF;" parent="WIyWlLk6GJQsqaUBKTNV-1" vertex="1">
          <mxGeometry x="40" y="361" width="300" height="287" as="geometry">
            <mxRectangle x="230" y="140" width="160" height="26" as="alternateBounds" />
          </mxGeometry>
        </mxCell>
        <mxCell id="C-rfX_DPHn8f2_06dQrT-2" value="C_TYPE = &#39; Sampler&#39;" style="text;align=left;verticalAlign=top;spacingLeft=4;spacingRight=4;overflow=hidden;rotatable=0;points=[[0,0.5],[1,0.5]];portConstraint=eastwest;" parent="C-rfX_DPHn8f2_06dQrT-1" vertex="1">
          <mxGeometry y="26" width="300" height="26" as="geometry" />
        </mxCell>
        <mxCell id="C-rfX_DPHn8f2_06dQrT-18" value="_num_instances : int" style="text;align=left;verticalAlign=top;spacingLeft=4;spacingRight=4;overflow=hidden;rotatable=0;points=[[0,0.5],[1,0.5]];portConstraint=eastwest;" parent="C-rfX_DPHn8f2_06dQrT-1" vertex="1">
          <mxGeometry y="52" width="300" height="26" as="geometry" />
        </mxCell>
        <mxCell id="C-rfX_DPHn8f2_06dQrT-19" value="**_kwargs" style="text;align=left;verticalAlign=top;spacingLeft=4;spacingRight=4;overflow=hidden;rotatable=0;points=[[0,0.5],[1,0.5]];portConstraint=eastwest;" parent="C-rfX_DPHn8f2_06dQrT-1" vertex="1">
          <mxGeometry y="78" width="300" height="26" as="geometry" />
        </mxCell>
        <mxCell id="C-rfX_DPHn8f2_06dQrT-7" value="" style="line;html=1;strokeWidth=1;align=left;verticalAlign=middle;spacingTop=-1;spacingLeft=3;spacingRight=3;rotatable=0;labelPosition=right;points=[];portConstraint=eastwest;" parent="C-rfX_DPHn8f2_06dQrT-1" vertex="1">
          <mxGeometry y="104" width="300" height="8" as="geometry" />
        </mxCell>
        <mxCell id="C-rfX_DPHn8f2_06dQrT-8" value="__init__( p_num_instance : int,&#xa;               **p_kwargs )" style="text;align=left;verticalAlign=top;spacingLeft=4;spacingRight=4;overflow=hidden;rotatable=0;points=[[0,0.5],[1,0.5]];portConstraint=eastwest;fontStyle=1" parent="C-rfX_DPHn8f2_06dQrT-1" vertex="1">
          <mxGeometry y="112" width="300" height="40" as="geometry" />
        </mxCell>
        <mxCell id="C-rfX_DPHn8f2_06dQrT-9" value="reset()" style="text;align=left;verticalAlign=top;spacingLeft=4;spacingRight=4;overflow=hidden;rotatable=0;points=[[0,0.5],[1,0.5]];portConstraint=eastwest;fontColor=#0000FF;" parent="C-rfX_DPHn8f2_06dQrT-1" vertex="1">
          <mxGeometry y="152" width="300" height="26" as="geometry" />
        </mxCell>
        <mxCell id="lvhqgCnyK4_7Xmcv2zhv-0" value="get_num_instances() -&gt; int" style="text;align=left;verticalAlign=top;spacingLeft=4;spacingRight=4;overflow=hidden;rotatable=0;points=[[0,0.5],[1,0.5]];portConstraint=eastwest;" parent="C-rfX_DPHn8f2_06dQrT-1" vertex="1">
          <mxGeometry y="178" width="300" height="26" as="geometry" />
        </mxCell>
        <mxCell id="lvhqgCnyK4_7Xmcv2zhv-1" value="set_num_instances( p_num_instances:int )" style="text;align=left;verticalAlign=top;spacingLeft=4;spacingRight=4;overflow=hidden;rotatable=0;points=[[0,0.5],[1,0.5]];portConstraint=eastwest;" parent="C-rfX_DPHn8f2_06dQrT-1" vertex="1">
          <mxGeometry y="204" width="300" height="26" as="geometry" />
        </mxCell>
        <mxCell id="C-rfX_DPHn8f2_06dQrT-10" value="omit_instance( p_inst:Instance ) -&gt; bool" style="text;align=left;verticalAlign=top;spacingLeft=4;spacingRight=4;overflow=hidden;rotatable=0;points=[[0,0.5],[1,0.5]];portConstraint=eastwest;" parent="C-rfX_DPHn8f2_06dQrT-1" vertex="1">
          <mxGeometry y="230" width="300" height="26" as="geometry" />
        </mxCell>
        <mxCell id="C-rfX_DPHn8f2_06dQrT-21" value="_omit_instance( p_inst:Instance ) -&gt; bool" style="text;align=left;verticalAlign=top;spacingLeft=4;spacingRight=4;overflow=hidden;rotatable=0;points=[[0,0.5],[1,0.5]];portConstraint=eastwest;fontColor=#0000FF;" parent="C-rfX_DPHn8f2_06dQrT-1" vertex="1">
          <mxGeometry y="256" width="300" height="26" as="geometry" />
        </mxCell>
        <mxCell id="izVwHubuXxZEv1W2QvRP-13" style="edgeStyle=orthogonalEdgeStyle;rounded=0;orthogonalLoop=1;jettySize=auto;html=1;endArrow=block;endFill=0;" edge="1" parent="WIyWlLk6GJQsqaUBKTNV-1" source="K_ok7bvVgyCFEdtzs1Y9-0" target="fdyP1tWBDfPf_pqGQ-dC-17">
          <mxGeometry relative="1" as="geometry" />
        </mxCell>
        <mxCell id="K_ok7bvVgyCFEdtzs1Y9-0" value="MultiStream &#xa;(Stream)" style="swimlane;fontStyle=3;align=center;verticalAlign=top;childLayout=stackLayout;horizontal=1;startSize=40;horizontalStack=0;resizeParent=1;resizeLast=0;collapsible=1;marginBottom=0;rounded=0;shadow=1;strokeWidth=3;fillColor=#f8cecc;strokeColor=#b85450;swimlaneFillColor=#ffffff;gradientColor=#FFFFFF;" parent="WIyWlLk6GJQsqaUBKTNV-1" vertex="1">
          <mxGeometry x="460" y="1410" width="300" height="600" as="geometry">
            <mxRectangle x="230" y="140" width="160" height="26" as="alternateBounds" />
          </mxGeometry>
        </mxCell>
        <mxCell id="K_ok7bvVgyCFEdtzs1Y9-1" value="C_TYPE  = &#39;Multi-Stream&#39;" style="text;align=left;verticalAlign=top;spacingLeft=4;spacingRight=4;overflow=hidden;rotatable=0;points=[[0,0.5],[1,0.5]];portConstraint=eastwest;" parent="K_ok7bvVgyCFEdtzs1Y9-0" vertex="1">
          <mxGeometry y="40" width="300" height="26" as="geometry" />
        </mxCell>
        <mxCell id="-VnAkc6Fdwfzm_w4UeYP-2" value="_batch_counter : int" style="text;align=left;verticalAlign=top;spacingLeft=4;spacingRight=4;overflow=hidden;rotatable=0;points=[[0,0.5],[1,0.5]];portConstraint=eastwest;" parent="K_ok7bvVgyCFEdtzs1Y9-0" vertex="1">
          <mxGeometry y="66" width="300" height="26" as="geometry" />
        </mxCell>
        <mxCell id="-VnAkc6Fdwfzm_w4UeYP-4" value="_batch_size : int" style="text;align=left;verticalAlign=top;spacingLeft=4;spacingRight=4;overflow=hidden;rotatable=0;points=[[0,0.5],[1,0.5]];portConstraint=eastwest;" parent="K_ok7bvVgyCFEdtzs1Y9-0" vertex="1">
          <mxGeometry y="92" width="300" height="26" as="geometry" />
        </mxCell>
        <mxCell id="-VnAkc6Fdwfzm_w4UeYP-7" value="_current_stream_id : int" style="text;align=left;verticalAlign=top;spacingLeft=4;spacingRight=4;overflow=hidden;rotatable=0;points=[[0,0.5],[1,0.5]];portConstraint=eastwest;" parent="K_ok7bvVgyCFEdtzs1Y9-0" vertex="1">
          <mxGeometry y="118" width="300" height="26" as="geometry" />
        </mxCell>
        <mxCell id="-VnAkc6Fdwfzm_w4UeYP-0" value="_num_streams : int" style="text;align=left;verticalAlign=top;spacingLeft=4;spacingRight=4;overflow=hidden;rotatable=0;points=[[0,0.5],[1,0.5]];portConstraint=eastwest;" parent="K_ok7bvVgyCFEdtzs1Y9-0" vertex="1">
          <mxGeometry y="144" width="300" height="26" as="geometry" />
        </mxCell>
        <mxCell id="-VnAkc6Fdwfzm_w4UeYP-6" value="_iterables : dict[ iterable ]" style="text;align=left;verticalAlign=top;spacingLeft=4;spacingRight=4;overflow=hidden;rotatable=0;points=[[0,0.5],[1,0.5]];portConstraint=eastwest;" parent="K_ok7bvVgyCFEdtzs1Y9-0" vertex="1">
          <mxGeometry y="170" width="300" height="26" as="geometry" />
        </mxCell>
        <mxCell id="K_ok7bvVgyCFEdtzs1Y9-26" value="_streams : dict[ list[Stream, int] ]" style="text;align=left;verticalAlign=top;spacingLeft=4;spacingRight=4;overflow=hidden;rotatable=0;points=[[0,0.5],[1,0.5]];portConstraint=eastwest;" parent="K_ok7bvVgyCFEdtzs1Y9-0" vertex="1">
          <mxGeometry y="196" width="300" height="26" as="geometry" />
        </mxCell>
        <mxCell id="-VnAkc6Fdwfzm_w4UeYP-5" value="_current_iterable : iterable" style="text;align=left;verticalAlign=top;spacingLeft=4;spacingRight=4;overflow=hidden;rotatable=0;points=[[0,0.5],[1,0.5]];portConstraint=eastwest;" parent="K_ok7bvVgyCFEdtzs1Y9-0" vertex="1">
          <mxGeometry y="222" width="300" height="26" as="geometry" />
        </mxCell>
        <mxCell id="K_ok7bvVgyCFEdtzs1Y9-9" value="" style="line;html=1;strokeWidth=1;align=left;verticalAlign=middle;spacingTop=-1;spacingLeft=3;spacingRight=3;rotatable=0;labelPosition=right;points=[];portConstraint=eastwest;" parent="K_ok7bvVgyCFEdtzs1Y9-0" vertex="1">
          <mxGeometry y="248" width="300" height="8" as="geometry" />
        </mxCell>
        <mxCell id="K_ok7bvVgyCFEdtzs1Y9-10" value="__init__( p_id = &#39;&#39;,&#xa;               p_name : str = &#39;&#39;,&#xa;               p_num_instances : int = 0,&#xa;               p_version : str = &#39;&#39;,&#xa;               p_sampler : Sampler = None,&#xa;               p_mode = Mode.C_MODE_SIM,&#xa;               p_logging = Log.C_LOG_ALL )" style="text;align=left;verticalAlign=top;spacingLeft=4;spacingRight=4;overflow=hidden;rotatable=0;points=[[0,0.5],[1,0.5]];portConstraint=eastwest;fontStyle=1;fontColor=#FF0000;" parent="K_ok7bvVgyCFEdtzs1Y9-0" vertex="1">
          <mxGeometry y="256" width="300" height="110" as="geometry" />
        </mxCell>
        <mxCell id="K_ok7bvVgyCFEdtzs1Y9-23" value="_get_next() -&gt; Instance" style="text;align=left;verticalAlign=top;spacingLeft=4;spacingRight=4;overflow=hidden;rotatable=0;points=[[0,0.5],[1,0.5]];portConstraint=eastwest;fontColor=#FF0000;" parent="K_ok7bvVgyCFEdtzs1Y9-0" vertex="1">
          <mxGeometry y="366" width="300" height="26" as="geometry" />
        </mxCell>
        <mxCell id="K_ok7bvVgyCFEdtzs1Y9-22" value="__next__() -&gt; Instance" style="text;align=left;verticalAlign=top;spacingLeft=4;spacingRight=4;overflow=hidden;rotatable=0;points=[[0,0.5],[1,0.5]];portConstraint=eastwest;fontColor=#FF0000;" parent="K_ok7bvVgyCFEdtzs1Y9-0" vertex="1">
          <mxGeometry y="392" width="300" height="26" as="geometry" />
        </mxCell>
        <mxCell id="K_ok7bvVgyCFEdtzs1Y9-21" value="setup_sampler() -&gt; Sampler" style="text;align=left;verticalAlign=top;spacingLeft=4;spacingRight=4;overflow=hidden;rotatable=0;points=[[0,0.5],[1,0.5]];portConstraint=eastwest;fontColor=#FF0000;" parent="K_ok7bvVgyCFEdtzs1Y9-0" vertex="1">
          <mxGeometry y="418" width="300" height="26" as="geometry" />
        </mxCell>
        <mxCell id="K_ok7bvVgyCFEdtzs1Y9-20" value="_reset()" style="text;align=left;verticalAlign=top;spacingLeft=4;spacingRight=4;overflow=hidden;rotatable=0;points=[[0,0.5],[1,0.5]];portConstraint=eastwest;fontColor=#FF0000;" parent="K_ok7bvVgyCFEdtzs1Y9-0" vertex="1">
          <mxGeometry y="444" width="300" height="26" as="geometry" />
        </mxCell>
        <mxCell id="izVwHubuXxZEv1W2QvRP-3" value="get_tstamp() -&gt; datetime" style="text;align=left;verticalAlign=top;spacingLeft=4;spacingRight=4;overflow=hidden;rotatable=0;points=[[0,0.5],[1,0.5]];portConstraint=eastwest;fontColor=#FF0000;" vertex="1" parent="K_ok7bvVgyCFEdtzs1Y9-0">
          <mxGeometry y="470" width="300" height="26" as="geometry" />
        </mxCell>
        <mxCell id="K_ok7bvVgyCFEdtzs1Y9-18" value="set_random_seed( p_seed=None )" style="text;align=left;verticalAlign=top;spacingLeft=4;spacingRight=4;overflow=hidden;rotatable=0;points=[[0,0.5],[1,0.5]];portConstraint=eastwest;fontColor=#FF0000;" parent="K_ok7bvVgyCFEdtzs1Y9-0" vertex="1">
          <mxGeometry y="496" width="300" height="26" as="geometry" />
        </mxCell>
        <mxCell id="K_ok7bvVgyCFEdtzs1Y9-13" value="get_feature_space() -&gt; MSpace" style="text;align=left;verticalAlign=top;spacingLeft=4;spacingRight=4;overflow=hidden;rotatable=0;points=[[0,0.5],[1,0.5]];portConstraint=eastwest;fontColor=#FF0000;" parent="K_ok7bvVgyCFEdtzs1Y9-0" vertex="1">
          <mxGeometry y="522" width="300" height="26" as="geometry" />
        </mxCell>
        <mxCell id="K_ok7bvVgyCFEdtzs1Y9-15" value="get_label_space() -&gt; MSpace" style="text;align=left;verticalAlign=top;spacingLeft=4;spacingRight=4;overflow=hidden;rotatable=0;points=[[0,0.5],[1,0.5]];portConstraint=eastwest;fontColor=#FF0000;" parent="K_ok7bvVgyCFEdtzs1Y9-0" vertex="1">
          <mxGeometry y="548" width="300" height="26" as="geometry" />
        </mxCell>
        <mxCell id="K_ok7bvVgyCFEdtzs1Y9-11" value="add_stream( p_stream : Stream, p_ratio : int = 1 )" style="text;align=left;verticalAlign=top;spacingLeft=4;spacingRight=4;overflow=hidden;rotatable=0;points=[[0,0.5],[1,0.5]];portConstraint=eastwest;fontStyle=1;fontColor=#FF0000;" parent="K_ok7bvVgyCFEdtzs1Y9-0" vertex="1">
          <mxGeometry y="574" width="300" height="26" as="geometry" />
        </mxCell>
        <mxCell id="izVwHubuXxZEv1W2QvRP-18" style="edgeStyle=orthogonalEdgeStyle;rounded=0;orthogonalLoop=1;jettySize=auto;html=1;endArrow=block;endFill=1;" edge="1" parent="WIyWlLk6GJQsqaUBKTNV-1" source="fdyP1tWBDfPf_pqGQ-dC-101" target="C-rfX_DPHn8f2_06dQrT-1">
          <mxGeometry relative="1" as="geometry" />
        </mxCell>
      </root>
    </mxGraphModel>
  </diagram>
</mxfile>
